<svg width="256" height="256" viewBox="0 0 256 256" fill="none" xmlns="http://www.w3.org/2000/svg">
<g clip-path="url(#clip0_94_54)">
<path fill-rule="evenodd" clip-rule="evenodd" d="M128 224C181.019 224 224 181.019 224 128C224 74.9807 181.019 32 128 32C74.9807 32 32 74.9807 32 128C32 181.019 74.9807 224 128 224ZM128 256C198.692 256 256 198.692 256 128C256 57.3076 198.692 0 128 0C57.3076 0 0 57.3076 0 128C0 198.692 57.3076 256 128 256Z" fill="white" fill-opacity="0.2"/>
<path d="M145 16C145 24.8366 137.837 32 129 32C120.163 32 113 24.8366 113 16C113 7.16344 120.163 0 129 0C137.837 0 145 7.16344 145 16Z" fill="white"/>
<path d="M129 32.0013C181.559 32.5377 224 75.3106 224 127.996C224 150.279 216.408 170.788 203.67 187.079L228.051 207.84C245.542 185.95 256 158.194 256 127.996C256 57.6374 199.232 0.537399 129 0V32.0013Z" fill="white"/>
<path d="M203.67 187.079L228.051 207.84C222.312 214.559 212.245 215.309 205.525 209.57C198.806 203.831 197.932 193.799 203.67 187.079Z" fill="white"/>
</g>
<defs>
<clipPath id="clip0_94_54">
<rect width="256" height="256" fill="white"/>
</clipPath>
</defs>
</svg>
